REM DIRINDEX 1\2\4,1\2\5,1\3\6,1\3\7,1\3\8
REM DIRNAME folder01,folder02,folder03,folder04,folder05,folder06,folder07,folder08
TITLE ""
FILE "LEVEL3-015-midashigo.mp3" MP3
  TRACK 01 AUDIO
    TITLE "0:"
    INDEX 01 00:00:00
  TRACK 02 AUDIO
    TITLE "6:cjc092_2335"
    INDEX 01 00:00:03
  TRACK 03 AUDIO
    TITLE "0:"
    INDEX 01 00:01:66
  TRACK 04 AUDIO
    TITLE "7:cjc092_2336"
    INDEX 01 00:02:42
  TRACK 05 AUDIO
    TITLE "8:cjc092_2337"
    INDEX 01 00:03:66
  TRACK 06 AUDIO
    TITLE "0:"
    INDEX 01 00:05:67
  TRACK 07 AUDIO
    TITLE "7:cjc092_2338"
    INDEX 01 00:06:22
  TRACK 08 AUDIO
    TITLE "8:cjc092_2339"
    INDEX 01 00:07:54
  TRACK 09 AUDIO
    TITLE "0:"
    INDEX 01 00:09:30
  TRACK 10 AUDIO
    TITLE "7:cjc092_2340"
    INDEX 01 00:09:61
  TRACK 11 AUDIO
    TITLE "8:cjc092_2341"
    INDEX 01 00:11:35
  TRACK 12 AUDIO
    TITLE "0:"
    INDEX 01 00:13:14
  TRACK 13 AUDIO
    TITLE "7:cjc092_2342"
    INDEX 01 00:13:51
  TRACK 14 AUDIO
    TITLE "8:cjc092_2343"
    INDEX 01 00:14:68
  TRACK 15 AUDIO
    TITLE "0:"
    INDEX 01 00:17:53
  TRACK 16 AUDIO
    TITLE "7:cjc092_2344"
    INDEX 01 00:18:17
  TRACK 17 AUDIO
    TITLE "8:cjc092_2345"
    INDEX 01 00:19:30
  TRACK 18 AUDIO
    TITLE "0:"
    INDEX 01 00:20:32
  TRACK 19 AUDIO
    TITLE "7:cjc092_2346"
    INDEX 01 00:20:69
  TRACK 20 AUDIO
    TITLE "8:cjc092_2347"
    INDEX 01 00:22:11
  TRACK 21 AUDIO
    TITLE "0:"
    INDEX 01 00:24:33
  TRACK 22 AUDIO
    TITLE "7:cjc092_2348"
    INDEX 01 00:24:69
  TRACK 23 AUDIO
    TITLE "8:cjc092_2349"
    INDEX 01 00:26:17
  TRACK 24 AUDIO
    TITLE "0:"
    INDEX 01 00:29:34
  TRACK 25 AUDIO
    TITLE "7:cjc092_2350"
    INDEX 01 00:29:62
  TRACK 26 AUDIO
    TITLE "8:cjc092_2351"
    INDEX 01 00:31:18
  TRACK 27 AUDIO
    TITLE "0:"
    INDEX 01 00:33:03
  TRACK 28 AUDIO
    TITLE "7:cjc092_2352"
    INDEX 01 00:33:44
  TRACK 29 AUDIO
    TITLE "8:cjc092_2353"
    INDEX 01 00:34:71
  TRACK 30 AUDIO
    TITLE "0:"
    INDEX 01 00:37:50
  TRACK 31 AUDIO
    TITLE "7:cjc092_2354"
    INDEX 01 00:38:08
  TRACK 32 AUDIO
    TITLE "8:cjc092_2355"
    INDEX 01 00:39:35
  TRACK 33 AUDIO
    TITLE "0:"
    INDEX 01 00:41:30
  TRACK 34 AUDIO
    TITLE "7:cjc092_2356"
    INDEX 01 00:41:67
  TRACK 35 AUDIO
    TITLE "8:cjc092_2357"
    INDEX 01 00:43:11
  TRACK 36 AUDIO
    TITLE "0:"
    INDEX 01 00:46:27
  TRACK 37 AUDIO
    TITLE "7:cjc092_2358"
    INDEX 01 00:46:60
  TRACK 38 AUDIO
    TITLE "8:cjc092_2359"
    INDEX 01 00:48:26
  TRACK 39 AUDIO
    TITLE "0:"
    INDEX 01 00:49:72
  TRACK 40 AUDIO
    TITLE "7:cjc092_2360"
    INDEX 01 00:50:29
  TRACK 41 AUDIO
    TITLE "8:cjc092_2361"
    INDEX 01 00:52:00
  TRACK 42 AUDIO
    TITLE "0:"
    INDEX 01 00:53:62
  TRACK 43 AUDIO
    TITLE "7:cjc092_2362"
    INDEX 01 00:54:15
  TRACK 44 AUDIO
    TITLE "8:cjc092_2363"
    INDEX 01 00:55:61
  TRACK 45 AUDIO
    TITLE "0:"
    INDEX 01 00:57:23
  TRACK 46 AUDIO
    TITLE "7:cjc092_2364"
    INDEX 01 00:57:58
  TRACK 47 AUDIO
    TITLE "8:cjc092_2365"
    INDEX 01 00:59:41
  TRACK 48 AUDIO
    TITLE "0:"
    INDEX 01 01:02:57
  TRACK 49 AUDIO
    TITLE "7:cjc092_2366"
    INDEX 01 01:03:14
  TRACK 50 AUDIO
    TITLE "8:cjc092_2367"
    INDEX 01 01:04:48
  TRACK 51 AUDIO
    TITLE "0:"
    INDEX 01 01:07:64
  TRACK 52 AUDIO
    TITLE "7:cjc092_2368"
    INDEX 01 01:08:23
  TRACK 53 AUDIO
    TITLE "8:cjc092_2369"
    INDEX 01 01:09:46
  TRACK 54 AUDIO
    TITLE "0:"
    INDEX 01 01:10:45
  TRACK 55 AUDIO
    TITLE "7:cjc092_2370"
    INDEX 01 01:11:03
  TRACK 56 AUDIO
    TITLE "8:cjc092_2371"
    INDEX 01 01:12:32
  TRACK 57 AUDIO
    TITLE "0:"
    INDEX 01 01:15:50
  TRACK 58 AUDIO
    TITLE "7:cjc092_2372"
    INDEX 01 01:16:03
  TRACK 59 AUDIO
    TITLE "8:cjc092_2373"
    INDEX 01 01:17:33
  TRACK 60 AUDIO
    TITLE "0:"
    INDEX 01 01:18:58
